<?xml version="1.0" encoding="UTF-8"?>
<!DOCTYPE svg PUBLIC "-//W3C//DTD SVG 1.1//EN" "http://www.w3.org/Graphics/SVG/1.1/DTD/svg11.dtd">
<svg xmlns="http://www.w3.org/2000/svg" version="1.1" width="512px" height="512px" style="shape-rendering:geometricPrecision; text-rendering:geometricPrecision; image-rendering:optimizeQuality; fill-rule:evenodd; clip-rule:evenodd" xmlns:xlink="http://www.w3.org/1999/xlink">
<g><path style="opacity:0.951" fill="#fefffe" d="M 364.5,10.5 C 371.11,9.59326 377.11,11.0933 382.5,15C 399.038,28.5999 405.704,46.0999 402.5,67.5C 451.097,76.2641 482.597,104.264 497,151.5C 507.338,197.799 499.672,240.799 474,280.5C 453.272,310.897 427.106,335.397 395.5,354C 376.628,364.352 357.295,373.852 337.5,382.5C 327.36,413.452 312.527,441.785 293,467.5C 278.426,483.038 260.926,493.871 240.5,500C 210.833,502.332 198.667,488.832 204,459.5C 206.447,451.269 210.447,443.936 216,437.5C 222.5,429.667 229.667,422.5 237.5,416C 250.115,406.054 263.281,396.887 277,388.5C 283.102,371.526 288.769,354.526 294,337.5C 278.631,351.181 260.631,358.514 240,359.5C 225.794,359.233 214.794,353.233 207,341.5C 205.582,328.869 206.915,316.536 211,304.5C 220.333,275.167 229.667,245.833 239,216.5C 241.819,206.559 244.319,196.559 246.5,186.5C 243.393,186.351 240.393,186.851 237.5,188C 223.049,196.117 211.549,207.284 203,221.5C 197.029,232.418 192.029,243.751 188,255.5C 176.556,289.833 164.723,324 152.5,358C 136.5,358.667 120.5,358.667 104.5,358C 100.134,357.634 97.8007,355.301 97.5,351C 119.894,284.818 142.06,218.651 164,152.5C 149.484,159.842 134.984,167.342 120.5,175C 85.859,196.791 59.359,225.958 41,262.5C 25.8407,297.607 24.5074,333.274 37,369.5C 52.2771,401.762 77.6104,420.762 113,426.5C 123.854,405.639 139.021,388.472 158.5,375C 172.648,365.754 187.981,362.754 204.5,366C 226.203,376.969 230.369,392.802 217,413.5C 206.025,426.416 192.191,434.916 175.5,439C 160.029,442.663 144.362,444.83 128.5,445.5C 128.144,453.238 128.644,460.905 130,468.5C 131.42,472.345 133.587,475.678 136.5,478.5C 140.921,480.792 145.088,483.459 149,486.5C 152.043,497.556 147.877,502.056 136.5,500C 122.076,493.348 113.243,482.181 110,466.5C 109.816,458.921 109.316,451.421 108.5,444C 66.7616,436.581 36.9283,413.748 19,375.5C 15.6535,367.794 13.3202,359.794 12,351.5C 4.64555,308.601 12.6456,268.934 36,232.5C 54.9283,202.238 79.7616,178.071 110.5,160C 130.852,148.574 151.685,138.074 173,128.5C 181.315,106.871 190.981,85.8712 202,65.5C 215.365,44.1335 233.198,27.6335 255.5,16C 266.788,11.7416 278.455,10.4082 290.5,12C 308.696,22.2556 313.529,37.0889 305,56.5C 296.123,74.0496 283.623,88.5496 267.5,100C 256.928,107.87 246.095,115.37 235,122.5C 226.712,141.368 220.045,160.701 215,180.5C 235.688,164.161 259.188,157.328 285.5,160C 297.095,162.925 303.762,170.259 305.5,182C 304.237,188.554 302.737,195.054 301,201.5C 290.403,235.957 279.403,270.29 268,304.5C 265.213,312.979 263.38,321.646 262.5,330.5C 265.607,330.649 268.607,330.149 271.5,329C 288.438,319.395 301.272,305.895 310,288.5C 314.391,278.659 318.391,268.659 322,258.5C 333.735,223.796 345.568,189.129 357.5,154.5C 374.841,152.715 392.175,152.548 409.5,154C 411.967,154.796 413.3,156.463 413.5,159C 391.532,225.403 368.865,291.57 345.5,357.5C 373.037,347.381 398.037,332.547 420.5,313C 432.065,302.104 442.899,290.604 453,278.5C 483.437,235.55 490.103,189.217 473,139.5C 461.083,114.916 442.25,98.0824 416.5,89C 410.049,87.1111 403.549,85.6111 397,84.5C 385.451,106.054 369.618,123.887 349.5,138C 335.619,145.459 320.952,147.792 305.5,145C 286.54,135.79 281.707,121.624 291,102.5C 299.951,89.2348 312.117,80.0681 327.5,75C 345.74,69.3861 364.407,66.2195 383.5,65.5C 385.939,48.5523 379.939,35.7189 365.5,27C 358.138,21.5781 357.805,16.0781 364.5,10.5 Z M 244.5,93.5 C 250.696,75.773 258.529,58.773 268,42.5C 272.169,37.1594 277.335,33.1594 283.5,30.5C 287.333,31.9478 289.666,34.7811 290.5,39C 289.099,46.9675 285.932,54.1341 281,60.5C 269.911,72.7594 257.744,83.7594 244.5,93.5 Z M 242.5,45.5 C 206.906,141.74 172.74,239.407 140,338.5C 139.5,340.333 138.333,341.5 136.5,342C 130.833,342.667 125.167,342.667 119.5,342C 145.536,265.226 172.369,188.726 200,112.5C 209.157,86.8218 223.323,64.4885 242.5,45.5 Z M 367.5,84.5 C 370.187,84.3359 372.854,84.5026 375.5,85C 365.163,103.005 350.663,116.505 332,125.5C 323.14,130.165 314.807,129.499 307,123.5C 305.578,120.97 305.245,118.303 306,115.5C 308.669,108.498 313.169,102.998 319.5,99C 334.644,91.0513 350.644,86.218 367.5,84.5 Z M 266.5,465.5 C 276.818,441.858 286.318,417.858 295,393.5C 321.065,319.305 346.732,244.972 372,170.5C 377.874,168.57 384.04,167.903 390.5,168.5C 365.233,244.801 339.066,320.801 312,396.5C 303.865,417.593 292.865,436.926 279,454.5C 275.239,458.77 271.072,462.437 266.5,465.5 Z M 264.5,177.5 C 270.176,177.334 275.843,177.501 281.5,178C 282.333,178.833 283.167,179.667 284,180.5C 284.667,184.167 284.667,187.833 284,191.5C 270.869,234.561 257.535,277.561 244,320.5C 242.738,325.787 242.404,331.12 243,336.5C 243.273,338.329 244.107,339.829 245.5,341C 239.473,342.034 233.806,341.034 228.5,338C 225.798,335.597 224.131,332.597 223.5,329C 235.059,289.988 247.226,251.155 260,212.5C 263.897,201.063 265.397,189.397 264.5,177.5 Z M 183.5,383.5 C 188.844,383.334 194.177,383.501 199.5,384C 201.667,384.833 203.167,386.333 204,388.5C 205.089,397.493 201.922,404.66 194.5,410C 176.051,420.947 156.051,426.614 134.5,427C 144.833,411.333 157.833,398.333 173.5,388C 176.815,386.17 180.149,384.67 183.5,383.5 Z M 265.5,418.5 C 259.49,437.185 251.324,454.852 241,471.5C 237.473,476.264 232.806,479.264 227,480.5C 221.818,478.652 219.818,474.985 221,469.5C 222.245,463.678 224.578,458.345 228,453.5C 238.458,439.538 250.958,427.872 265.5,418.5 Z"/></g>
</svg>
