<?xml version="1.0" encoding="UTF-8"?>
<!DOCTYPE svg PUBLIC "-//W3C//DTD SVG 1.1//EN" "http://www.w3.org/Graphics/SVG/1.1/DTD/svg11.dtd">
<svg xmlns="http://www.w3.org/2000/svg" version="1.1" width="535px" height="96px" style="shape-rendering:geometricPrecision; text-rendering:geometricPrecision; image-rendering:optimizeQuality; fill-rule:evenodd; clip-rule:evenodd" xmlns:xlink="http://www.w3.org/1999/xlink">
<g><path style="opacity:0.728" fill="#000000" d="M 48.5,1.5 C 59.2799,1.05986 61.7799,5.3932 56,14.5C 52.3333,17.5 48.6667,20.5 45,23.5C 43.4868,26.0239 42.8201,28.6906 43,31.5C 47.2712,29.5044 51.7712,29.0044 56.5,30C 57,30.5 57.5,31 58,31.5C 56.5455,40.8763 54.0455,50.043 50.5,59C 50.8333,59.5 51.1667,60 51.5,60.5C 54.9121,58.255 57.4121,55.255 59,51.5C 61.8639,43.9084 64.5306,36.2418 67,28.5C 70.4085,27.3781 73.9085,27.2114 77.5,28C 78.0219,28.5613 78.3552,29.228 78.5,30C 74.244,41.9174 70.5773,53.7507 67.5,65.5C 76.8071,60.693 83.9737,53.693 89,44.5C 92.0889,35.3983 90.5889,27.2316 84.5,20C 81.5091,17.3845 78.1758,16.5512 74.5,17.5C 71.2287,22.801 66.562,26.1343 60.5,27.5C 52.4686,25.2197 51.4686,21.053 57.5,15C 62.3573,13.0355 67.3573,11.5355 72.5,10.5C 71.7178,7.92421 70.2178,5.92421 68,4.5C 67.5172,3.55198 67.3505,2.55198 67.5,1.5C 73.8115,1.6477 76.9782,4.98103 77,11.5C 92.0958,17.0199 97.7625,27.6865 94,43.5C 91.3616,51.2728 86.8616,57.7728 80.5,63C 75.2128,66.5595 69.7128,69.7262 64,72.5C 61.8325,81.6969 56.6658,88.5302 48.5,93C 40,95.1667 36.8333,92 39,83.5C 42.0777,78.5886 46.2443,74.9219 51.5,72.5C 53.0667,69.9722 53.9,67.3055 54,64.5C 48.9296,68.4226 43.9296,68.4226 39,64.5C 40.0056,54.6461 42.5056,45.1461 46.5,36C 43.5638,36.8931 41.0638,38.7264 39,41.5C 35.6061,49.6809 32.6061,58.0143 30,66.5C 26.3333,67.8333 22.6667,67.8333 19,66.5C 21.4905,55.6885 24.8238,45.0218 29,34.5C 29.7805,33.0563 29.6139,31.723 28.5,30.5C 15.581,36.2419 8.24767,46.0752 6.5,60C 6.57657,68.7231 10.5766,74.7231 18.5,78C 19.9437,78.7805 21.277,78.6139 22.5,77.5C 26.7096,68.8266 33.2096,66.16 42,69.5C 43.8772,73.5548 43.0439,77.0548 39.5,80C 35.1044,82.2995 30.4377,83.4661 25.5,83.5C 24.7893,86.8638 25.956,89.1971 29,90.5C 29.4828,91.448 29.6495,92.448 29.5,93.5C 23.2764,93.2772 19.943,89.9439 19.5,83.5C 4.27347,78.0488 -1.22653,67.3822 3,51.5C 8.232,37.9351 17.732,28.7684 31.5,24C 34.1125,19.2765 36.6125,14.4431 39,9.5C 41.772,6.21655 44.9386,3.54988 48.5,1.5 Z M 48.5,14.5 C 49.158,11.18 50.8247,8.51338 53.5,6.5C 53.7254,10.0185 52.0588,12.6851 48.5,14.5 Z M 42.5,14.5 C 37.1667,30.8333 31.8333,47.1667 26.5,63.5C 25.448,63.6495 24.448,63.4828 23.5,63C 28.8586,48.5925 34.0252,34.0925 39,19.5C 39.6972,17.4156 40.8639,15.7489 42.5,14.5 Z M 64.5,16.5 C 66.1992,16.3398 67.8659,16.5065 69.5,17C 66.9717,20.5881 63.6384,22.5881 59.5,23C 58.5494,22.2825 58.3828,21.4491 59,20.5C 60.4998,18.5313 62.3331,17.198 64.5,16.5 Z M 54.5,80.5 C 59.837,64.1557 65.1704,47.8224 70.5,31.5C 71.552,31.3505 72.552,31.5172 73.5,32C 68.4748,45.4074 63.6415,58.9074 59,72.5C 58.1404,75.6328 56.6404,78.2995 54.5,80.5 Z M 50.5,33.5 C 51.5,33.5 52.5,33.5 53.5,33.5C 51.1087,43.3413 48.1087,53.008 44.5,62.5C 44.1667,61.8333 43.8333,61.1667 43.5,60.5C 45.3636,53.409 47.5303,46.409 50,39.5C 50.4955,37.5273 50.6621,35.5273 50.5,33.5 Z M 35.5,71.5 C 36.9953,71.4148 37.9953,72.0815 38.5,73.5C 35.8623,77.4365 32.1957,78.9365 27.5,78C 29.7761,75.2111 32.4427,73.0444 35.5,71.5 Z M 48.5,80.5 C 47.842,83.82 46.1753,86.4866 43.5,88.5C 43.2746,84.9815 44.9412,82.3149 48.5,80.5 Z"/></g>
<g><path style="opacity:0.771" fill="#000000" d="M 127.5,12.5 C 128.5,12.5 129.5,12.5 130.5,12.5C 127.84,21.4816 125.173,30.4816 122.5,39.5C 122.667,40.1667 122.833,40.8333 123,41.5C 126.994,34.7557 132.827,31.589 140.5,32C 142.152,33.47 143.152,35.3033 143.5,37.5C 140.928,45.049 138.262,52.549 135.5,60C 137.943,59.9139 139.61,58.5806 140.5,56C 141.944,55.2195 143.277,55.3861 144.5,56.5C 141.599,63.2737 136.599,66.4404 129.5,66C 128.892,64.769 128.559,63.4357 128.5,62C 130.398,53.7411 133.065,45.7411 136.5,38C 135.892,37.1301 135.059,36.6301 134,36.5C 124.95,43.9019 118.617,53.2352 115,64.5C 112.599,65.6023 110.099,65.769 107.5,65C 112.874,49.3769 117.541,33.5436 121.5,17.5C 119.5,17.5 117.5,17.5 115.5,17.5C 115.33,16.1779 115.663,15.0113 116.5,14C 120.356,13.8227 124.023,13.3227 127.5,12.5 Z"/></g>
<g><path style="opacity:0.719" fill="#000000" d="M 260.5,12.5 C 266.643,13.0262 267.976,15.8595 264.5,21C 257.344,20.8565 256.011,18.0231 260.5,12.5 Z"/></g>
<g><path style="opacity:0.779" fill="#000000" d="M 379.5,12.5 C 380.675,12.281 381.675,12.6143 382.5,13.5C 377.431,28.3729 372.765,43.3729 368.5,58.5C 368.833,59.1667 369.167,59.8333 369.5,60.5C 371.167,59.5 372.5,58.1667 373.5,56.5C 374.689,55.5713 376.022,55.238 377.5,55.5C 375.835,60.0087 372.835,63.5087 368.5,66C 366.5,66.6667 364.5,66.6667 362.5,66C 361.884,64.5998 361.551,63.0998 361.5,61.5C 365.301,46.7666 369.301,32.0999 373.5,17.5C 371.396,17.7989 369.396,17.4656 367.5,16.5C 367.833,15.8333 368.167,15.1667 368.5,14.5C 372.313,13.8329 375.979,13.1663 379.5,12.5 Z"/></g>
<g><path style="opacity:0.719" fill="#000000" d="M 395.5,12.5 C 401.651,13.1029 402.984,15.9362 399.5,21C 394.545,22.3758 392.379,20.5425 393,15.5C 394.045,14.6266 394.878,13.6266 395.5,12.5 Z"/></g>
<g><path style="opacity:0.77" fill="#000000" d="M 492.5,26.5 C 497.723,26.2047 498.723,28.0381 495.5,32C 497.9,32.1858 500.234,32.6858 502.5,33.5C 502.167,34.1667 501.833,34.8333 501.5,35.5C 499.167,36.1667 496.833,36.8333 494.5,37.5C 491.541,45.3389 489.208,53.3389 487.5,61.5C 490.439,61.082 492.772,59.582 494.5,57C 496.167,56.3333 497.833,56.3333 499.5,57C 495.622,63.5766 489.956,66.5766 482.5,66C 480.556,63.8471 480.056,61.3471 481,58.5C 483.068,51.4642 485.234,44.4642 487.5,37.5C 485.5,36.8333 483.5,36.1667 481.5,35.5C 481.833,34.8333 482.167,34.1667 482.5,33.5C 487.02,32.5967 490.353,30.2633 492.5,26.5 Z"/></g>
<g><path style="opacity:0.731" fill="#000000" d="M 164.5,31.5 C 173.137,30.7898 175.97,34.4565 173,42.5C 172.215,44.286 171.049,45.786 169.5,47C 164.81,49.7295 159.81,51.5628 154.5,52.5C 154.345,59.9258 157.678,62.0925 164.5,59C 166.167,58 167.5,56.6667 168.5,55C 170.167,54.3333 171.833,54.3333 173.5,55C 168.708,65.3159 161.041,68.4826 150.5,64.5C 146.546,57.8412 146.713,51.1746 151,44.5C 154.076,38.5887 158.576,34.2554 164.5,31.5 Z M 162.5,36.5 C 165.288,36.0769 167.288,37.0769 168.5,39.5C 165.979,45.5769 161.645,48.2436 155.5,47.5C 157.095,43.2969 159.429,39.6302 162.5,36.5 Z"/></g>
<g><path style="opacity:0.756" fill="#000000" d="M 185.5,31.5 C 188.044,31.1043 190.211,31.771 192,33.5C 192.128,36.5144 192.128,39.5144 192,42.5C 194.463,39.0354 197.296,35.8688 200.5,33C 209.421,29.2584 212.921,32.0918 211,41.5C 208.354,48.0849 206.354,54.7516 205,61.5C 206.833,59.6667 208.667,57.8333 210.5,56C 211.635,55.2506 212.635,55.4173 213.5,56.5C 211.63,62.2095 207.797,65.5428 202,66.5C 200.564,66.4411 199.231,66.1078 198,65.5C 197.333,62.8333 197.333,60.1667 198,57.5C 199.846,51.7838 201.846,46.1172 204,40.5C 204.798,38.7412 204.631,37.0745 203.5,35.5C 193.914,43.4232 187.581,53.4232 184.5,65.5C 182.167,65.5 179.833,65.5 177.5,65.5C 179.757,56.3941 182.424,47.3941 185.5,38.5C 185.167,38.1667 184.833,37.8333 184.5,37.5C 182.684,38.8149 181.017,40.3149 179.5,42C 178.552,42.4828 177.552,42.6495 176.5,42.5C 177.669,37.3314 180.669,33.6647 185.5,31.5 Z"/></g>
<g><path style="opacity:0.749" fill="#000000" d="M 222.5,31.5 C 228.684,31.1958 231.184,34.1958 230,40.5C 231.932,37.1156 234.432,34.2823 237.5,32C 241.902,30.431 243.902,31.931 243.5,36.5C 243.977,40.518 242.31,42.3513 238.5,42C 237.929,40.7949 237.262,39.6283 236.5,38.5C 230.056,46.3898 226.056,55.3898 224.5,65.5C 222.076,65.8076 219.743,65.4742 217.5,64.5C 219.655,56.2137 221.655,47.8804 223.5,39.5C 223.167,38.8333 222.833,38.1667 222.5,37.5C 221.376,38.914 220.376,40.414 219.5,42C 218.552,42.4828 217.552,42.6495 216.5,42.5C 217.198,38.1026 219.198,34.4359 222.5,31.5 Z"/></g>
<g><path style="opacity:0.751" fill="#000000" d="M 253.5,31.5 C 255.527,31.3379 257.527,31.5045 259.5,32C 260.122,33.5691 260.456,35.2358 260.5,37C 258.973,44.9146 256.64,52.5813 253.5,60C 254.167,60.6667 254.833,60.6667 255.5,60C 257.376,57.954 259.376,56.1207 261.5,54.5C 262.167,54.8333 262.833,55.1667 263.5,55.5C 260.994,62.8739 255.994,66.3739 248.5,66C 247.056,64.874 246.39,63.374 246.5,61.5C 248.435,54.0279 250.769,46.6946 253.5,39.5C 253.167,38.8333 252.833,38.1667 252.5,37.5C 250.639,38.5283 249.305,40.0283 248.5,42C 247.167,42.6667 245.833,42.6667 244.5,42C 246.646,37.6933 249.646,34.1933 253.5,31.5 Z"/></g>
<g><path style="opacity:0.749" fill="#000000" d="M 293.5,31.5 C 296.056,31.1322 298.056,31.9655 299.5,34C 301.667,42.8358 303.834,51.6692 306,60.5C 309.941,56.2137 312.608,51.2137 314,45.5C 313.371,41.2182 313.038,36.8849 313,32.5C 315.382,31.1337 317.548,31.467 319.5,33.5C 320.481,41.4166 318.648,48.75 314,55.5C 309.256,63.5791 303.09,70.4125 295.5,76C 289.633,80.1906 283.466,81.024 277,78.5C 275.5,73.3333 277.333,71.5 282.5,73C 283.774,74.2208 285.274,75.0541 287,75.5C 292.465,73.8541 296.965,70.8541 300.5,66.5C 298.144,57.5552 295.977,48.5552 294,39.5C 293.577,38.0439 292.744,37.5439 291.5,38C 290.139,39.5843 289.472,41.4176 289.5,43.5C 288.167,43.5 286.833,43.5 285.5,43.5C 286.206,38.1381 288.873,34.1381 293.5,31.5 Z"/></g>
<g><path style="opacity:0.753" fill="#000000" d="M 331.5,31.5 C 335.198,30.6798 337.531,32.0131 338.5,35.5C 335.849,44.1048 333.516,52.7715 331.5,61.5C 335.302,60.2214 338.469,57.8881 341,54.5C 345.613,47.608 349.447,40.2747 352.5,32.5C 354.833,31.1667 357.167,31.1667 359.5,32.5C 356.573,41.7135 353.573,50.8802 350.5,60C 353.326,58.3878 356.326,56.8878 359.5,55.5C 358.178,59.9573 355.511,63.4573 351.5,66C 349.231,66.7581 347.064,66.5914 345,65.5C 344.667,62.5 344.333,59.5 344,56.5C 341.719,59.9032 338.886,62.7366 335.5,65C 326.579,68.7416 323.079,65.9082 325,56.5C 326.975,50.2413 329.141,44.0747 331.5,38C 329.08,38.3716 327.08,39.7049 325.5,42C 324.167,42.6667 322.833,42.6667 321.5,42C 324.291,37.8624 327.624,34.3624 331.5,31.5 Z"/></g>
<g><path style="opacity:0.753" fill="#000000" d="M 388.5,31.5 C 390.527,31.3379 392.527,31.5045 394.5,32C 395.122,33.5691 395.456,35.2358 395.5,37C 394.077,44.7698 391.744,52.2698 388.5,59.5C 389.002,60.521 389.668,60.6877 390.5,60C 392.213,58.6218 393.547,56.9552 394.5,55C 395.944,54.2195 397.277,54.3861 398.5,55.5C 396.343,61.4923 392.177,65.159 386,66.5C 382.929,66.2622 381.429,64.5956 381.5,61.5C 383.528,53.9147 385.862,46.4147 388.5,39C 388.167,38.5 387.833,38 387.5,37.5C 385.833,38.5 384.5,39.8333 383.5,41.5C 382.277,42.6139 380.944,42.7805 379.5,42C 381.646,37.6933 384.646,34.1933 388.5,31.5 Z"/></g>
<g><path style="opacity:0.767" fill="#000000" d="M 419.5,31.5 C 423.198,31.1944 426.698,31.861 430,33.5C 431.597,32.1153 433.43,31.4486 435.5,31.5C 433.541,40.8757 430.875,50.0423 427.5,59C 428,59.5 428.5,60 429,60.5C 430.998,58.5083 432.998,56.5083 435,54.5C 436.059,54.6301 436.892,55.1301 437.5,56C 435.221,61.2819 431.388,64.7819 426,66.5C 422.228,65.8187 420.561,63.4854 421,59.5C 416.062,66.9659 409.895,68.2992 402.5,63.5C 399.912,56.8121 400.745,50.4788 405,44.5C 408.809,38.849 413.642,34.5156 419.5,31.5 Z M 419.5,35.5 C 423.459,34.5778 425.792,36.0778 426.5,40C 424.771,48.14 420.771,54.8067 414.5,60C 410.349,60.698 408.016,58.8646 407.5,54.5C 409.127,46.5651 413.127,40.2318 419.5,35.5 Z"/></g>
<g><path style="opacity:0.757" fill="#000000" d="M 448.5,31.5 C 451.044,31.1043 453.211,31.771 455,33.5C 455.277,36.9594 454.943,40.2927 454,43.5C 456.825,39.6754 459.992,36.1754 463.5,33C 472.421,29.2584 475.921,32.0918 474,41.5C 471.162,48.0046 469.162,54.6712 468,61.5C 469.833,59.6667 471.667,57.8333 473.5,56C 474.635,55.2506 475.635,55.4173 476.5,56.5C 474.63,62.2095 470.797,65.5428 465,66.5C 463.564,66.4411 462.231,66.1078 461,65.5C 461.121,56.7863 463.121,48.453 467,40.5C 467.798,38.7412 467.631,37.0745 466.5,35.5C 457.427,43.412 450.927,53.0787 447,64.5C 444.959,65.4231 442.792,65.7564 440.5,65.5C 442.698,56.3768 445.365,47.3768 448.5,38.5C 447.998,37.479 447.332,37.3123 446.5,38C 445.167,39.3333 443.833,40.6667 442.5,42C 441.056,42.7805 439.723,42.6139 438.5,41.5C 440.882,37.1175 444.216,33.7842 448.5,31.5 Z"/></g>
<g><path style="opacity:0.786" fill="#000000" d="M 518.5,31.5 C 527.095,30.5978 531.428,34.4311 531.5,43C 530.697,55.9605 524.03,63.7938 511.5,66.5C 504.534,66.2911 500.867,62.6244 500.5,55.5C 501.688,43.752 507.688,35.752 518.5,31.5 Z M 517.5,35.5 C 519.722,35.178 521.556,35.8446 523,37.5C 525.549,46.8622 523.382,55.0288 516.5,62C 510.477,63.6486 507.811,61.3153 508.5,55C 508.549,46.9689 511.549,40.4689 517.5,35.5 Z"/></g>
</svg>
